<svg id="visual" viewBox="0 0 900 600" width="900" height="600" xmlns="http://www.w3.org/2000/svg" xmlns:xlink="http://www.w3.org/1999/xlink" version="1.1"><rect x="0" y="0" width="900" height="600" fill="#15151b"></rect><defs><linearGradient id="grad1_0" x1="33.3%" y1="0%" x2="100%" y2="100%"><stop offset="20%" stop-color="#c51162" stop-opacity="1"></stop><stop offset="80%" stop-color="#c51162" stop-opacity="1"></stop></linearGradient></defs><defs><linearGradient id="grad1_1" x1="33.3%" y1="0%" x2="100%" y2="100%"><stop offset="20%" stop-color="#c51162" stop-opacity="1"></stop><stop offset="80%" stop-color="#592859" stop-opacity="1"></stop></linearGradient></defs><defs><linearGradient id="grad1_2" x1="33.3%" y1="0%" x2="100%" y2="100%"><stop offset="20%" stop-color="#15151b" stop-opacity="1"></stop><stop offset="80%" stop-color="#592859" stop-opacity="1"></stop></linearGradient></defs><defs><linearGradient id="grad2_0" x1="0%" y1="0%" x2="66.7%" y2="100%"><stop offset="20%" stop-color="#c51162" stop-opacity="1"></stop><stop offset="80%" stop-color="#c51162" stop-opacity="1"></stop></linearGradient></defs><defs><linearGradient id="grad2_1" x1="0%" y1="0%" x2="66.7%" y2="100%"><stop offset="20%" stop-color="#592859" stop-opacity="1"></stop><stop offset="80%" stop-color="#c51162" stop-opacity="1"></stop></linearGradient></defs><defs><linearGradient id="grad2_2" x1="0%" y1="0%" x2="66.7%" y2="100%"><stop offset="20%" stop-color="#592859" stop-opacity="1"></stop><stop offset="80%" stop-color="#15151b" stop-opacity="1"></stop></linearGradient></defs><g transform="translate(900, 0)"><path d="M0 378.6C-71.7 371.9 -143.5 365.1 -189.3 327.9C-235.1 290.6 -255.1 222.7 -282.3 163C-309.6 103.3 -344.1 51.6 -378.6 0L0 0Z" fill="#2e223e"></path><path d="M0 252.4C-47.8 247.9 -95.6 243.4 -126.2 218.6C-156.8 193.7 -170.1 148.5 -188.2 108.7C-206.4 68.8 -229.4 34.4 -252.4 0L0 0Z" fill="#8f2466"></path><path d="M0 126.2C-23.9 124 -47.8 121.7 -63.1 109.3C-78.4 96.9 -85 74.2 -94.1 54.3C-103.2 34.4 -114.7 17.2 -126.2 0L0 0Z" fill="#c51162"></path></g><g transform="translate(0, 600)"><path d="M0 -378.6C63.1 -363.9 126.2 -349.3 184.5 -319.6C242.8 -289.8 296.3 -245.1 327.9 -189.3C359.4 -133.5 369 -66.8 378.6 0L0 0Z" fill="#2e223e"></path><path d="M0 -252.4C42.1 -242.6 84.1 -232.9 123 -213C161.9 -193.2 197.5 -163.4 218.6 -126.2C239.6 -89 246 -44.5 252.4 0L0 0Z" fill="#8f2466"></path><path d="M0 -126.2C21 -121.3 42.1 -116.4 61.5 -106.5C80.9 -96.6 98.8 -81.7 109.3 -63.1C119.8 -44.5 123 -22.3 126.2 0L0 0Z" fill="#c51162"></path></g></svg>